<svg height="64" viewBox="0 0 64 64" width="64" xmlns="http://www.w3.org/2000/svg"><g style="stroke-linecap:round;stroke-linejoin:round;stroke-width:3;stroke:#00c4f5;fill:none;stroke-miterlimit:10" transform="translate(.5 .5)"><g stroke="#0093d3"><path d="m52 8.028c0-3.313-2.686-6.028-6-6.028h-38c3.314 0 6 2.686 6 6v48c0 3.314 2.686 6 6 6"/><path d="m52 52v-24"/><path d="m26 56c0 3.314-2.686 6-6 6h36c3.314 0 6-2.686 6-6v-4h-36z"/><path d="m2 8c0-3.314 2.686-6 6-6s6 2.686 6 6v4h-12z"/></g><path d="m35.848 24.152 20.152-20.116c1.381-1.381 3.619-1.381 5 0 1.381 1.381 1.381 3.619 0 5l-20.151 20.115"/><path d="m39.08 25.92c-1.238-1.238-2.883-1.92-4.634-1.92s-3.397.682-4.634 1.92c-2.461 2.46-2.812 12.08-2.812 12.08s9.62-.351 12.08-2.811c1.238-1.238 1.92-2.884 1.92-4.634s-.682-3.397-1.92-4.635z"/></g></svg>