<svg fill="none" height="1270" viewBox="0 0 2015 1270" width="2015" xmlns="http://www.w3.org/2000/svg" xmlns:xlink="http://www.w3.org/1999/xlink"><mask id="a" height="1271" maskUnits="userSpaceOnUse" width="2015" x="0" y="0"><path d="m2015 0h1270v2015h-1270z" fill="#dffcff" transform="matrix(0 1 -1 0 2015 -2015)"/></mask><g mask="url(#a)" stroke="#a7b7be" stroke-width="5"><path d="m72.1243 606.552c-95.2006 0-172.3753-77.168-172.3753-172.36s77.1747-172.36 172.3754-172.36c95.2006 0 172.3756 77.168 172.3756 172.36s-77.175 172.36-172.3757 172.36z"/><path d="m321.992 1104.27-681.411 158.11c-28.12 6.52-52.758-19.84-44.348-47.45l203.769-669.122c8.41-27.614 43.56-35.772 63.271-14.683l477.641 511.015c19.713 21.09 9.2 55.61-18.922 62.13z"/><path d="m842.335 207.037-13.974-122.3261c-1.349-11.8039-14.355-18.3573-24.645-12.4172l-84.985 49.0623c-10.289 5.94-11.117 20.479-1.568 27.549l98.96 73.264c11.596 8.585 27.85-.798 26.212-15.132z"/><path d="m1044.23 108.019-13.97-122.3257c-1.35-11.8039-14.36-18.3573-24.65-12.4172l-84.983 49.0619c-10.29 5.9401-11.117 20.4798-1.568 27.5494l98.961 73.2636c11.59 8.586 27.85-.798 26.21-15.132z"/><path d="m1200.52 94.0522-13.97-122.3257c-1.35-11.8039-14.36-18.3573-24.65-12.4172l-84.98 49.06191c-10.29 5.94009-11.12 20.47979-1.57 27.54939l98.96 73.2634c11.59 8.586 27.85-.797 26.21-15.1318z"/><path d="m888.983 40.4975-13.975-122.3257c-1.348-11.8039-14.355-18.3568-24.644-12.4171l-84.985 49.0618c-10.29 5.9401-11.117 20.4798-1.568 27.5495l98.959 73.2638c11.597 8.5853 27.85-.7978 26.213-15.1323z"/><path d="m996.108 256.931-13.975-122.326c-1.348-11.804-14.355-18.357-24.644-12.417l-84.985 49.062c-10.29 5.94-11.117 20.48-1.568 27.55l98.959 73.263c11.597 8.586 27.85-.797 26.213-15.132z"/><path d="m931.256 478.94-252.526 274.596c-19.595 21.308-54.92 13.32-63.443-14.345l-110.764-359.521c-8.523-27.665 16.184-54.143 44.373-47.553l363.29 84.924c27.954 6.535 38.501 40.769 19.07 61.899z"/><path d="m645.115 131.484-446.326 607.371c-17.094 23.263-52.959 19.297-64.557-7.137l-302.808-690.1638c-11.598-26.4346 9.768-55.5132 38.459-52.3423l749.135 82.7926c28.693 3.1711 43.192 36.2165 26.097 59.4795z"/><rect height="340.23" rx="170.115" transform="matrix(-.426074 .904688 -.904719 -.426009 906.873 749.929)" width="768.307" x="-3.32698" y="1.1967"/><path d="m1044.23 1380.18-13.97-122.32c-1.35-11.81-14.36-18.36-24.65-12.42l-84.983 49.06c-10.29 5.94-11.117 20.48-1.568 27.55l98.961 73.26c11.59 8.59 27.85-.79 26.21-15.13z"/><path d="m1200.52 1366.21-13.97-122.32c-1.35-11.81-14.36-18.36-24.65-12.42l-84.98 49.06c-10.29 5.94-11.12 20.48-1.57 27.55l98.96 73.27c11.59 8.58 27.85-.8 26.21-15.14z"/><path d="m888.983 1312.66-13.975-122.33c-1.348-11.8-14.355-18.35-24.644-12.41l-84.985 49.06c-10.29 5.94-11.117 20.48-1.568 27.55l98.959 73.26c11.597 8.59 27.85-.8 26.213-15.13z"/><path d="m996.108 1204.44-13.975-122.33c-1.348-11.8-14.355-18.36-24.644-12.42l-84.985 49.07c-10.29 5.94-11.117 20.48-1.568 27.55l98.959 73.26c11.597 8.58 27.85-.8 26.213-15.13z"/><rect height="396.279" rx="198.14" transform="matrix(.293394 .955992 -.956006 .293346 1622.54 -482.703)" width="720.697" x="-1.65653" y="3.12334"/><path d="m2087.12 606.552c-95.2 0-172.37-77.168-172.37-172.36s77.17-172.36 172.37-172.36c95.21 0 172.38 77.168 172.38 172.36s-77.18 172.36-172.38 172.36z"/><path d="m2337 1104.27-681.41 158.11c-28.12 6.52-52.76-19.84-44.35-47.45l203.77-669.122c8.41-27.614 43.56-35.772 63.27-14.683l477.64 511.015c19.71 21.09 9.2 55.61-18.92 62.13z"/><rect height="352.946" rx="176.473" transform="matrix(.725041 -.688706 .68877 .72498 976.568 1057.76)" width="757.454" x="3.53453" y=".090685"/><path d="m1532.19 208.582-11.67 102.154c-.45 3.935-4.78 6.12-8.21 4.139l-70.97-40.971c-3.43-1.98-3.71-6.827-.53-9.183l82.65-61.183c3.86-2.862 9.28.266 8.73 5.044z"/><path d="m1669.76 276.048-11.67 102.155c-.45 3.935-4.78 6.119-8.21 4.139l-70.97-40.972c-3.43-1.98-3.71-6.826-.53-9.183l82.64-61.183c3.87-2.861 9.29.266 8.74 5.044z"/><path d="m1551.25 334.707-11.67 102.154c-.45 3.935-4.78 6.12-8.21 4.139l-70.97-40.971c-3.43-1.98-3.71-6.827-.53-9.183l82.64-61.183c3.87-2.862 9.29.266 8.74 5.044z"/><path d="m1712.25 376.707-11.67 102.154c-.45 3.935-4.78 6.12-8.21 4.139l-70.97-40.971c-3.43-1.98-3.71-6.827-.53-9.183l82.64-61.183c3.87-2.862 9.29.266 8.74 5.044z"/><path d="m1641.6 144.05-11.67 102.155c-.45 3.935-4.79 6.119-8.22 4.139l-70.97-40.972c-3.43-1.98-3.71-6.826-.52-9.183l82.64-61.183c3.86-2.861 9.28.266 8.74 5.044z"/><path d="m1472.44 690.252-426.9 92.615c-28.21 6.12-52.468-20.593-43.66-48.085l133.22-415.995c8.8-27.492 44.06-35.144 63.47-13.774l293.68 323.38c19.41 21.371 8.41 55.738-19.81 61.859z"/><path d="m2660.12 131.484-446.33 607.371c-17.09 23.263-52.95 19.297-64.55-7.137l-302.81-690.1638c-11.6-26.4346 9.77-55.5132 38.46-52.3423l749.13 82.7926c28.7 3.1711 43.2 36.2165 26.1 59.4795z"/><rect height="396.279" rx="198.14" transform="matrix(.293394 .955992 -.956006 .293346 1622.54 789.468)" width="720.697" x="-1.65653" y="3.12334"/><path d="m2661.12 1403.66-446.33 607.37c-17.09 23.26-52.95 19.29-64.55-7.14l-302.81-690.16c-11.6-26.44 9.77-55.52 38.46-52.35l749.13 82.8c28.7 3.17 43.2 36.21 26.1 59.48z"/><rect height="340.23" rx="170.115" transform="matrix(-.426074 .904688 -.904719 -.426009 906.873 -520.207)" width="768.307" x="-3.32698" y="1.1967"/><rect height="238.07" rx="119.035" transform="matrix(.835616 .549315 -.549255 .835655 1831.91 235.725)" width="244.372" x=".715903" y="3.46242"/></g></svg>