<?xml version="1.0" encoding="UTF-8"?>
<svg width="404px" height="512px" viewBox="0 0 404 512" version="1.1" xmlns="http://www.w3.org/2000/svg" xmlns:xlink="http://www.w3.org/1999/xlink">
    <!-- Generator: Sketch 64 (93537) - https://sketch.com -->
    <title>basura (1)</title>
    <desc>Created with Sketch.</desc>
    <g id="Page-1" stroke="none" stroke-width="1" fill="none" fill-rule="evenodd">
        <g id="basura-(1)" fill="#627884" fill-rule="nonzero">
            <path d="M388.154,145 C398.739,145 406.078,134.299 402.109,124.486 C388.016,89.645 353.834,65 314,65 L295.586,65 C288.719,28.727 256.916,0 218,0 L186,0 C147.109,0 115.285,28.708 108.414,65 L90,65 C50.166,65 15.984,89.645 1.891,124.486 C-2.078,134.299 5.261,145 15.846,145 L388.154,145 Z M186,30 L218,30 C239.9,30 258.49,44.734 264.748,65 L139.252,65 C145.51,44.734 164.1,30 186,30 Z" id="Shape"></path>
            <path d="M57.053,470.196 C58.722,493.638 78.439,512 101.939,512 L302.06,512 C325.56,512 345.277,493.638 346.946,470.196 L367.969,175 L36.031,175 L57.053,470.196 Z M243.019,255.251 C243.433,246.977 250.488,240.596 258.749,241.019 C267.023,241.433 273.395,248.476 272.981,256.749 L264.981,416.749 C264.58,424.768 257.952,431 250.012,431 C241.375,431 234.592,423.777 235.018,415.251 L243.019,255.251 Z M145.251,241.019 C153.514,240.604 160.568,246.978 160.981,255.251 L168.981,415.251 C169.407,423.781 162.619,431 153.987,431 C146.047,431 139.419,424.768 139.018,416.749 L131.018,256.749 C130.605,248.476 136.977,241.433 145.251,241.019 L145.251,241.019 Z" id="Shape"></path>
        </g>
    </g>
</svg>